# xmcd
#
# Track frame offsets: 
#        150
#        19051
#        37702
#        53697
#        79406
#        104536
#        125106
#        147603
#        169066
#        193578
#        215616
#        239071
#        259268
#
# Disc length: 3673 seconds
#
# Revision: 0
# Processed by: cddbd v1.5.2PL0 Copyright (c) Steve Scherf et al.
# Submitted via: ExactAudioCopy v1.1
#
DISCID=c30e570d
DTITLE=This Way Up - Three Shades of Grey
DYEAR=2014
DGENRE=Blues
TTITLE0=Wind Over Denver
TTITLE1=Whipping Post
TTITLE2=Little by Little
TTITLE3=Alone in the Dark
TTITLE4=Slow Gin
TTITLE5=Babe I Have Had Enough
TTITLE6=Worried Down By The Blues
TTITLE7=Dust Bowl
TTITLE8=The Garbage Man Blues
TTITLE9=Stop
TTITLE10=Gravity
TTITLE11=Highway 61
TTITLE12=Dallas
EXTD=
EXTT0=
EXTT1=
EXTT2=
EXTT3=
EXTT4=
EXTT5=
EXTT6=
EXTT7=
EXTT8=
EXTT9=
EXTT10=
EXTT11=
EXTT12=
PLAYORDER=
